<?xml version="1.0" encoding="UTF-8"?>
<svg xmlns="http://www.w3.org/2000/svg" xmlns:xlink="http://www.w3.org/1999/xlink" viewBox="0 0 16 16">
  <defs>
    <style>
      .cls-1 {
        fill: url(#linear-gradient-2);
      }

      .cls-2 {
        fill: #121212;
      }

      .cls-3 {
        fill: url(#linear-gradient);
      }
    </style>
    <linearGradient id="linear-gradient" x1="11.93" y1="3.31" x2="11.93" y2="12.69" gradientUnits="userSpaceOnUse">
      <stop offset="0" stop-color="#87cdea"/>
      <stop offset=".32" stop-color="#4fb2e1"/>
      <stop offset=".7" stop-color="#3a83c3"/>
      <stop offset="1" stop-color="#38509c"/>
    </linearGradient>
    <linearGradient id="linear-gradient-2" x1="4.66" x2="4.66" xlink:href="#linear-gradient"/>
  </defs>
  <g id="Background">
    <rect class="cls-2" width="16" height="16"/>
  </g>
  <g id="Initials">
    <g>
      <path class="cls-3" d="M15.52,12.69L11.38,3.56s-.61-.57-1.3,0l-.47.9-.41.88-.38.92-.48.96s.95.76,1.13,2.01l1.24-2.56.97,2.16-1.24-.02-.89,1.93h2.95s.84,1.94.84,1.94h2.18Z"/>
      <path class="cls-1" d="M5.61,12.69l1.14-2.36c.32-1.06-.82-1.51-.82-1.51l-2.81.02v-1.95s2.11-.02,2.11-.02c1.42-.88-.03-1.66-.03-1.66l-2.75.08-.02,5.45h3.29l-.91,1.95H.48V3.31h5.17s1.66.24,2.05,1.73c0,0,.37,1.51-.23,2.33,0,0,1.54.7,1.36,3.11-.03-.01-.21,1.82-2.18,2.16l-1.03.04Z"/>
    </g>
  </g>
</svg>